# xmcd CD database file
# Copyright (C) 1993-1998 Ti Kan
# 
# Track frame offsets:
#     180
#     12103
#     24041
#     35258
#     51839
# 
# Disc length: 825 seconds
# 
# Revision: 1
# Processed by: cddbd v1.4b41PL1 Copyright (c) Steve Scherf et al.
# Submitted via: DiscPlay 4.0.4
# 
DISCID=2a033705
DTITLE=Chris Cummings - The Kind Of Heart That Breaks
DYEAR=1900
DGENRE=
TTITLE0=The Kind Of Heart That Breaks
TTITLE1=Lonesomeville
TTITLE2=Till I See You Again
TTITLE3=Minute And A Half
TTITLE4=Somewhere Inside
EXTD=
EXTT0=
EXTT1=
EXTT2=
EXTT3=
EXTT4=
PLAYORDER=
